<svg xmlns="http://www.w3.org/2000/svg" xmlns:xlink="http://www.w3.org/1999/xlink" version="1.1" preserveAspectRatio="none" x="0px" y="0px" viewBox="0 0 100 125"><defs><g id="a"><path fill="#000000" stroke="none" d=" M 81.8 81.8 Q 95 68.6 95 50 95 31.3 81.8 18.15 68.6 5 50 5 31.35 5 18.15 18.15 5 31.35 5 50 5 68.6 18.15 81.8 31.35 95 50 95 68.6 95 81.8 81.8 M 50 11.55 Q 65.9 11.55 77.15 22.8 88.4 34.05 88.4 50 88.4 65.85 77.15 77.15 L 77.1 77.15 Q 65.85 88.4 50 88.4 34.05 88.4 22.8 77.15 11.6 65.9 11.6 50 11.6 34.05 22.8 22.8 34.1 11.55 50 11.55 M 62.3 30.95 L 50 43.25 37.7 31 Q 36.3 29.55 34.3 29.55 32.35 29.55 30.95 31 29.55 32.4 29.55 34.35 29.55 36.3 30.95 37.75 L 43.25 50 30.95 62.3 Q 29.55 63.7 29.55 65.65 29.55 67.65 30.95 69.05 32.35 70.45 34.3 70.45 36.3 70.45 37.7 69.05 L 50 56.75 62.3 69.05 Q 63.7 70.45 65.65 70.45 67.65 70.45 69.05 69.05 70.45 67.65 70.45 65.65 70.45 63.7 69.05 62.3 L 56.75 50 69.05 37.7 Q 70.4 36.3 70.4 34.3 70.4 32.35 69.05 30.95 67.6 29.55 65.65 29.55 63.65 29.55 62.3 30.95 Z"/></g></defs><g transform="matrix( 1, 0, 0, 1, 0,0) "><use xlink:href="#a"/></g></svg>